Coordinates
version=1
nRows=12
nColumns=24
inDegrees=yes

Units are S.I. units (second, meters, Newtons, ...)
Angles are in degrees.

endheader
time	pelvis_tilt	pelvis_list	pelvis_rotation	pelvis_tx	pelvis_ty	pelvis_tz	hip_flexion_r	hip_adduction_r	hip_rotation_r	knee_angle_r	ankle_angle_r	subtalar_angle_r	mtp_angle_r	hip_flexion_l	hip_adduction_l	hip_rotation_l	knee_angle_l	ankle_angle_l	subtalar_angle_l	mtp_angle_l	lumbar_extension	lumbar_bending	lumbar_rotation
      0.68616667	     -5.03320016	     -0.36353847	      4.34041844	     -0.43125983	      1.04479638	      0.30890602	     21.31783705	      0.85253510	     -3.23431742	    -30.04967374	     16.05543228	     -6.42410051	      2.92847485	     23.48764327	     -5.08551780	     -5.85135888	    -75.04692480	      4.27084889	      7.09568625	      4.55567292	     -6.28251590	      2.04282652	      1.86764891
      0.69033333	     -5.04231786	     -0.20921991	      4.30158878	     -0.42535492	      1.04628046	      0.30869812	     20.74543003	      0.70964520	     -3.19819152	    -29.61402004	     16.17350723	     -6.29505520	      2.94198258	     24.02633258	     -4.84282037	     -6.11205675	    -74.59849615	      4.62162035	      7.57201500	      4.57197406	     -6.24834532	      1.91238915	      1.94385926
      0.69450000	     -5.05434267	     -0.04712536	      4.25091005	     -0.41944220	      1.04773485	      0.30849631	     20.17519889	      0.56020831	     -3.15332355	    -29.17459633	     16.28424379	     -6.16923338	      2.95694970	     24.54564609	     -4.59614492	     -6.38224514	    -74.07726126	      4.96248819	      8.07888716	      4.59371928	     -6.21194159	      1.77037212	      2.02560955
      0.69866667	     -5.05971285	      0.11275289	      4.19270500	     -0.41351645	      1.04920157	      0.30828832	     19.58969522	      0.41421615	     -3.10458388	    -28.71287465	     16.37686835	     -6.04714484	      2.97306019	     25.03574328	     -4.35385554	     -6.65126733	    -73.48220417	      5.29671536	      8.60693376	      4.62044689	     -6.18077376	      1.62958086	      2.11250152
      0.70283333	     -5.06446857	      0.26649512	      4.12779857	     -0.40759580	      1.05062778	      0.30807854	     19.00185128	      0.27579657	     -3.04996112	    -28.24098094	     16.45529308	     -5.93489422	      2.98938300	     25.51004750	     -4.12356409	     -6.92096293	    -72.83070493	      5.62633997	      9.15515918	      4.65108221	     -6.14945618	      1.49391645	      2.20257982
      0.70700000	     -5.07079904	      0.42906597	      4.05056497	     -0.40167621	      1.05201749	      0.30788209	     18.41756099	      0.12959650	     -2.98586123	    -27.76751483	     16.53073074	     -5.82608250	      3.00777248	     25.96342453	     -3.88901898	     -7.19512254	    -72.10988672	      5.94500810	      9.70974289	      4.68621842	     -6.11603011	      1.35024397	      2.30268888
      0.71116667	     -5.06652199	      0.58865468	      3.97007101	     -0.39574500	      1.05341399	      0.30767143	     17.81533165	     -0.01328042	     -2.91678662	    -27.27729730	     16.58148680	     -5.72863786	      3.02457870	     26.38534200	     -3.65924499	     -7.46378510	    -71.32390760	      6.24895836	     10.25155818	      4.72159504	     -6.09700701	      1.20356783	      2.39670240
      0.71533333	     -5.06520708	      0.74669010	      3.87865957	     -0.38981926	      1.05474368	      0.30748316	     17.22164485	     -0.15148867	     -2.83768091	    -26.79201087	     16.63718996	     -5.63890286	      3.04341666	     26.79229185	     -3.43758887	     -7.73028630	    -70.48168220	      6.54738506	     10.78964829	      4.76142792	     -6.07553620	      1.06133631	      2.50987578
      0.71950000	     -5.07607102	      0.91391793	      3.78624435	     -0.38388480	      1.05601551	      0.30728773	     16.63970050	     -0.30305450	     -2.76106627	    -26.30113845	     16.67218331	     -5.54992146	      3.05881616	     27.19250462	     -3.20551063	     -7.98997211	    -69.57867931	      6.82216895	     11.28320713	      4.79663235	     -6.03589540	      0.88972672	      2.60043242
      0.72366667	     -5.06053608	      1.05927932	      3.68011546	     -0.37797692	      1.05726871	      0.30710109	     16.03093948	     -0.42469756	     -2.65855853	    -25.80207929	     16.74004522	     -5.47137677	      3.09234932	     27.55150973	     -3.00644471	     -8.24386865	    -68.63112126	      7.10248225	     11.77624346	      4.86468644	     -6.04002910	      0.76054106	      2.81320383
      0.72783333	     -5.09884354	      1.22750121	      3.57659436	     -0.37206601	      1.05837791	      0.30689857	     15.49374776	     -0.58095239	     -2.57282347	    -25.33147093	     16.74632840	     -5.40587461	      3.10672310	     27.94783959	     -2.77150725	     -8.48086319	    -67.61966895	      7.34446341	     12.19209733	      4.90071005	     -5.96932124	      0.60505728	      2.87795935
      0.73200000	     -5.08118613	      1.37797004	      3.46254312	     -0.36616199	      1.05953027	      0.30672159	     14.88899741	     -0.70966686	     -2.46941014	    -24.83685802	     16.80185157	     -5.34619181	      3.13472469	     28.26622939	     -2.57125257	     -8.71641342	    -66.56061121	      7.58960091	     12.60013863	      4.96295395	     -5.96711927	      0.46094196	      3.05833101
